<?xml version="1.0" encoding="utf-8"?>
<!-- Generator: Adobe Illustrator 16.0.0, SVG Export Plug-In . SVG Version: 6.00 Build 0)  -->
<!DOCTYPE svg PUBLIC "-//W3C//DTD SVG 1.1//EN" "http://www.w3.org/Graphics/SVG/1.1/DTD/svg11.dtd">
<svg version="1.1" id="Layer_1" xmlns="http://www.w3.org/2000/svg" xmlns:xlink="http://www.w3.org/1999/xlink" x="0px" y="0px"
	 width="640px" height="480px" viewBox="0 0 640 480" style="enable-background:new 0 0 640 480;" xml:space="preserve">
<style type="text/css">
<![CDATA[
	.st0{fill:#7F2040;}
	.st1{fill:#E53974;}
	.st2{fill:#4B62E4;}
	.st3{fill:#B22D5A;}
	.st4{fill:#8792D0;}
	.st5{fill:#536DFE;}
	.st6{fill:#26327F;}
	.st7{fill:#949ED5;}
	.st8{fill:#99264D;}
	.st9{fill:#616BA2;}
	.st10{fill:#FF4081;}
	.st11{fill:#FF538E;}
	.st12{fill:#FF669A;}
	.st13{fill:#657CFE;}
	.st14{fill:#CC3367;}
	.st15{fill:#303F9F;}
	.st16{fill:#324191;}
	.st17{fill:#6D78B6;}
	.st18{fill:#3F51B5;}
	.st19{fill:#758AFE;}
	.st20{fill:#7986CB;}
	.st21{fill:#4257CB;}
]]>
</style>
<polygon class="st12" points="345.4,152 370.8,196 396.2,152 "/>
<polygon class="st11" points="320,196 345.4,152 370.8,196 "/>
<polygon class="st10" points="320,196 345.4,240 370.8,196 "/>
<polygon class="st1" points="294.6,240 320,196 345.4,240 "/>
<polygon class="st14" points="294.6,240 320,284 345.4,240 "/>
<polygon class="st3" points="269.2,284 294.6,240 320,284 "/>
<polygon class="st8" points="269.2,284 294.6,328 320,284 "/>
<polygon class="st0" points="243.8,328 269.2,284 294.6,328 "/>
<polygon class="st19" points="243.8,152 269.2,196 294.6,152 "/>
<polygon class="st13" points="218.4,196 243.8,152 269.2,196 "/>
<polygon class="st5" points="218.4,196 243.8,240 269.2,196 "/>
<polygon class="st2" points="193,240 218.4,196 243.8,240 "/>
<polygon class="st21" points="193,240 218.4,284 243.8,240 "/>
<polygon class="st15" points="269.2,284 243.8,240 218.4,284 "/>
<polygon class="st6" points="269.2,284 243.8,328 218.4,284 "/>
<polygon class="st16" points="421.6,196 396.2,152 370.8,196 "/>
<polygon class="st18" points="421.6,196 396.2,240 370.8,196 "/>
<polygon class="st7" points="396.2,240 421.6,196 447,240 "/>
<polygon class="st4" points="396.2,240 421.6,284 447,240 "/>
<polygon class="st20" points="370.8,284 396.2,240 421.6,284 "/>
<polygon class="st17" points="370.8,284 396.2,328 421.6,284 "/>
<polygon class="st9" points="345.4,328 370.8,284 396.2,328 "/>
</svg>
